<svg xmlns="http://www.w3.org/2000/svg"viewBox="0 0 1000 1000" width="30" height="30">
  <path d="M75 0C33 0 0 33 0 75v850c0 42 33 75 75 75h850c42 0 75-33 75-75V75c0-42-33-75-75-75H75m427 18c121 1 238 14 306 46 0 0 134 60 134 266 0 0 2 152-18 257-13 67-117 140-236 154-62 8-123 15-188 12-106-5-190-26-190-26 0 11 0 20 2 30 14 105 104 111 189 114 87 3 164-21 164-21l3 78s-60 32-168 38c-59 3-133-1-219-24C95 893 63 694 58 493c-1-60 0-116 0-163C58 124 193 64 193 64c68-32 184-45 306-46h3M256 224c-26 30-39 71-39 122v249h98V353c0-51 22-77 65-77 47 0 71 31 71 92v132h98V368c0-61 24-92 71-92 43 0 65 26 65 77v242h98V346c0-51-13-92-39-122-27-30-62-45-105-45-51 0-89 20-114 58l-25 42-25-42c-25-38-63-58-114-58-43 0-78 15-105 45"/>
</svg>
