<svg xmlns="http://www.w3.org/2000/svg" xml:space="preserve" viewBox="0 0 455 455" width="30" height="30">
  <path fill-rule="evenodd" d="M0 0v455h455V0H0zm352.8 163.3.1 8.3c0 85.4-65 183.9-183.8 183.9-36.5 0-70.5-10.7-99.1-29a130.6 130.6 0 0 0 95.7-26.8 64.7 64.7 0 0 1-60.4-44.9 64.4 64.4 0 0 0 29.2-1 64.7 64.7 0 0 1-51.8-63.5v-.8a64.4 64.4 0 0 0 29.2 8.1 64.6 64.6 0 0 1-20-86.3A183.5 183.5 0 0 0 225.1 179a64.8 64.8 0 0 1 63-79.4c18.6 0 35.4 7.9 47.2 20.4 14.7-2.9 28.5-8.3 41-15.7a64.5 64.5 0 0 1-28.4 35.8c13-1.6 25.5-5 37.1-10.2-8.7 13-19.6 24.3-32.2 33.5z" clip-rule="evenodd"/>
</svg>
